<svg width="141" height="141" viewBox="0 0 141 141" fill="none" xmlns="http://www.w3.org/2000/svg">
<circle cx="70.5" cy="70.5" r="70.5" fill="#495AEF"/>
<circle cx="70.5" cy="70.5" r="70.5" fill="url(#paint0_linear_1518_1618)" fill-opacity="0.2"/>
<g clip-path="url(#clip0_1518_1618)">
<path d="M40.0667 79.101C38.6428 73.7899 38.6428 68.1974 40.0667 62.8862H59.1643V79.101H40.0667Z" fill="#FFFDFD"/>
<path d="M101.896 62.8916C103.317 68.2114 103.312 73.8117 101.881 79.1289H82.7932V62.8916H101.896Z" fill="#FFFDFD"/>
<path d="M71.0675 62.8043C73.2708 62.8043 75.4741 62.8442 77.6748 62.7843C78.5741 62.7593 78.9613 63.0066 78.9563 63.9484C78.9313 68.6414 78.9313 73.3352 78.9563 78.0298C78.9563 78.9566 78.5966 79.2139 77.6873 79.2064C73.2408 79.1615 68.7935 79.1615 64.3453 79.2064C63.401 79.2064 62.9938 78.9791 62.9988 77.9774C63.0288 73.326 63.0288 68.6738 62.9988 64.0208C62.9988 63.0216 63.3735 62.7543 64.3353 62.7718C66.5785 62.8467 68.8243 62.8043 71.0675 62.8043Z" fill="#FFFDFD"/>
<path d="M77.1501 39.812C85.3387 39.8595 98.436 50.666 100.472 58.972H82.2911C81.3968 52.4396 80.3801 45.8898 77.1501 39.812Z" fill="#FFFDFD"/>
<path d="M77.1802 102.111C80.3452 96.148 81.3994 89.6455 82.2762 83.0107H100.447C98.8332 90.962 84.5369 102.733 77.1802 102.111Z" fill="#FFFDFD"/>
<path d="M64.4501 39.8242C63.411 42.9843 62.2019 46.0693 61.395 49.2718C60.5882 52.4743 60.1635 55.6918 59.5565 58.9892H41.5706C42.2725 51.8024 56.8086 39.7343 64.4501 39.8242Z" fill="#FFFDFD"/>
<path d="M64.7798 102.11C57.3481 102.673 43.0468 90.8943 41.5105 82.9805H59.6638C60.5606 89.5903 61.5948 96.1327 64.7798 102.11Z" fill="#FFFDFD"/>
<path d="M78.4992 58.9792H63.4585C64.2754 53.0913 65.1472 47.3184 67.9225 42.0475C68.3326 41.2784 68.8415 40.5662 69.4363 39.9291C70.5879 38.6801 71.4348 38.6801 72.5564 39.9791C73.3329 40.8963 73.9909 41.9077 74.5148 42.9893C76.4034 46.8712 77.2627 51.0529 77.9671 55.2771C78.1645 56.4612 78.3119 57.6453 78.4992 58.9792Z" fill="#FFFDFD"/>
<path d="M63.4434 83.0107H78.6115C78.0369 86.0883 77.6347 89.1235 76.8629 92.0637C76.1465 94.6561 75.2431 97.1933 74.16 99.6552C73.5579 101.077 72.7511 102.845 71.0099 102.863C69.1889 102.878 68.4894 101.024 67.7425 99.6152C65.8565 96.058 64.9797 92.1686 64.2452 88.2491C63.9355 86.543 63.7206 84.8193 63.4434 83.0107Z" fill="#FFFDFD"/>
</g>
<defs>
<linearGradient id="paint0_linear_1518_1618" x1="70.5" y1="1.01499e-05" x2="138.596" y2="14.099" gradientUnits="userSpaceOnUse">
<stop stop-opacity="0.58"/>
<stop offset="1" stop-opacity="0"/>
</linearGradient>
<clipPath id="clip0_1518_1618">
<rect width="63.9599" height="63.8625" fill="white" transform="translate(39 39)"/>
</clipPath>
</defs>
</svg>
